<mxfile host="app.diagrams.net" modified="2021-08-31T09:24:16.990Z" agent="5.0 (Windows NT 10.0; Win64; x64) AppleWebKit/537.36 (KHTML, like Gecko) Chrome/92.0.4515.159 Safari/537.36" etag="Lky1s-NdDsGYs6ByDB5Q" version="15.0.3" type="github">
  <diagram id="FVQnKu5uh7ANynsQm92V" name="Page-1">
    <mxGraphModel dx="834" dy="443" grid="1" gridSize="10" guides="1" tooltips="1" connect="1" arrows="1" fold="1" page="1" pageScale="1" pageWidth="850" pageHeight="1100" math="0" shadow="0">
      <root>
        <mxCell id="0" />
        <mxCell id="1" parent="0" />
        <mxCell id="eNahWZ3VKkZ7LZgfTRCJ-8" style="edgeStyle=orthogonalEdgeStyle;rounded=0;orthogonalLoop=1;jettySize=auto;html=1;endArrow=diamond;endFill=1;exitX=0;exitY=0.5;exitDx=0;exitDy=0;entryX=1;entryY=0.5;entryDx=0;entryDy=0;" edge="1" parent="1" source="eNahWZ3VKkZ7LZgfTRCJ-2" target="eNahWZ3VKkZ7LZgfTRCJ-1">
          <mxGeometry relative="1" as="geometry">
            <mxPoint x="270" y="120" as="targetPoint" />
          </mxGeometry>
        </mxCell>
        <mxCell id="eNahWZ3VKkZ7LZgfTRCJ-1" value="Picture" style="rounded=0;whiteSpace=wrap;html=1;" vertex="1" parent="1">
          <mxGeometry x="130" y="110" width="120" height="60" as="geometry" />
        </mxCell>
        <mxCell id="eNahWZ3VKkZ7LZgfTRCJ-17" style="edgeStyle=orthogonalEdgeStyle;rounded=0;orthogonalLoop=1;jettySize=auto;html=1;entryX=0;entryY=0.5;entryDx=0;entryDy=0;endArrow=none;endFill=0;" edge="1" parent="1" source="eNahWZ3VKkZ7LZgfTRCJ-2" target="eNahWZ3VKkZ7LZgfTRCJ-3">
          <mxGeometry relative="1" as="geometry">
            <Array as="points" />
          </mxGeometry>
        </mxCell>
        <mxCell id="eNahWZ3VKkZ7LZgfTRCJ-2" value="Person" style="rounded=0;whiteSpace=wrap;html=1;" vertex="1" parent="1">
          <mxGeometry x="360" y="110" width="120" height="60" as="geometry" />
        </mxCell>
        <mxCell id="eNahWZ3VKkZ7LZgfTRCJ-3" value="Canvas" style="rounded=0;whiteSpace=wrap;html=1;" vertex="1" parent="1">
          <mxGeometry x="690" y="110" width="120" height="60" as="geometry" />
        </mxCell>
        <mxCell id="eNahWZ3VKkZ7LZgfTRCJ-9" style="edgeStyle=orthogonalEdgeStyle;rounded=0;orthogonalLoop=1;jettySize=auto;html=1;endArrow=none;endFill=0;" edge="1" parent="1" source="eNahWZ3VKkZ7LZgfTRCJ-4">
          <mxGeometry relative="1" as="geometry">
            <mxPoint x="300" y="140" as="targetPoint" />
          </mxGeometry>
        </mxCell>
        <mxCell id="eNahWZ3VKkZ7LZgfTRCJ-16" style="edgeStyle=orthogonalEdgeStyle;rounded=0;orthogonalLoop=1;jettySize=auto;html=1;endArrow=none;endFill=0;entryX=0.5;entryY=1;entryDx=0;entryDy=0;" edge="1" parent="1" source="eNahWZ3VKkZ7LZgfTRCJ-4" target="eNahWZ3VKkZ7LZgfTRCJ-3">
          <mxGeometry relative="1" as="geometry">
            <mxPoint x="740" y="260" as="targetPoint" />
            <Array as="points">
              <mxPoint x="750" y="230" />
            </Array>
          </mxGeometry>
        </mxCell>
        <mxCell id="eNahWZ3VKkZ7LZgfTRCJ-4" value="Cloud" style="rounded=0;whiteSpace=wrap;html=1;" vertex="1" parent="1">
          <mxGeometry x="360" y="200" width="120" height="60" as="geometry" />
        </mxCell>
        <mxCell id="eNahWZ3VKkZ7LZgfTRCJ-10" style="edgeStyle=orthogonalEdgeStyle;rounded=0;orthogonalLoop=1;jettySize=auto;html=1;endArrow=none;endFill=0;" edge="1" parent="1" source="eNahWZ3VKkZ7LZgfTRCJ-5">
          <mxGeometry relative="1" as="geometry">
            <mxPoint x="300" y="230" as="targetPoint" />
          </mxGeometry>
        </mxCell>
        <mxCell id="eNahWZ3VKkZ7LZgfTRCJ-15" style="edgeStyle=orthogonalEdgeStyle;rounded=0;orthogonalLoop=1;jettySize=auto;html=1;endArrow=none;endFill=0;entryX=0.5;entryY=1;entryDx=0;entryDy=0;" edge="1" parent="1" source="eNahWZ3VKkZ7LZgfTRCJ-5" target="eNahWZ3VKkZ7LZgfTRCJ-3">
          <mxGeometry relative="1" as="geometry">
            <mxPoint x="770" y="250" as="targetPoint" />
            <Array as="points">
              <mxPoint x="750" y="330" />
            </Array>
          </mxGeometry>
        </mxCell>
        <mxCell id="eNahWZ3VKkZ7LZgfTRCJ-33" style="edgeStyle=orthogonalEdgeStyle;rounded=0;orthogonalLoop=1;jettySize=auto;html=1;entryX=0.562;entryY=1.015;entryDx=0;entryDy=0;entryPerimeter=0;endArrow=diamondThin;endFill=1;" edge="1" parent="1" source="eNahWZ3VKkZ7LZgfTRCJ-5" target="eNahWZ3VKkZ7LZgfTRCJ-4">
          <mxGeometry relative="1" as="geometry">
            <Array as="points">
              <mxPoint x="427" y="280" />
              <mxPoint x="427" y="280" />
            </Array>
          </mxGeometry>
        </mxCell>
        <mxCell id="eNahWZ3VKkZ7LZgfTRCJ-5" value="Circle" style="rounded=0;whiteSpace=wrap;html=1;" vertex="1" parent="1">
          <mxGeometry x="365" y="300" width="120" height="60" as="geometry" />
        </mxCell>
        <mxCell id="eNahWZ3VKkZ7LZgfTRCJ-11" style="edgeStyle=orthogonalEdgeStyle;rounded=0;orthogonalLoop=1;jettySize=auto;html=1;endArrow=none;endFill=0;" edge="1" parent="1" source="eNahWZ3VKkZ7LZgfTRCJ-6">
          <mxGeometry relative="1" as="geometry">
            <mxPoint x="300" y="330" as="targetPoint" />
          </mxGeometry>
        </mxCell>
        <mxCell id="eNahWZ3VKkZ7LZgfTRCJ-14" style="edgeStyle=orthogonalEdgeStyle;rounded=0;orthogonalLoop=1;jettySize=auto;html=1;entryX=0.5;entryY=1;entryDx=0;entryDy=0;endArrow=none;endFill=0;" edge="1" parent="1" source="eNahWZ3VKkZ7LZgfTRCJ-6" target="eNahWZ3VKkZ7LZgfTRCJ-3">
          <mxGeometry relative="1" as="geometry" />
        </mxCell>
        <mxCell id="eNahWZ3VKkZ7LZgfTRCJ-6" value="Square" style="rounded=0;whiteSpace=wrap;html=1;" vertex="1" parent="1">
          <mxGeometry x="365" y="400" width="120" height="60" as="geometry" />
        </mxCell>
        <mxCell id="eNahWZ3VKkZ7LZgfTRCJ-12" style="edgeStyle=orthogonalEdgeStyle;rounded=0;orthogonalLoop=1;jettySize=auto;html=1;endArrow=none;endFill=0;" edge="1" parent="1" source="eNahWZ3VKkZ7LZgfTRCJ-7">
          <mxGeometry relative="1" as="geometry">
            <mxPoint x="300" y="430" as="targetPoint" />
          </mxGeometry>
        </mxCell>
        <mxCell id="eNahWZ3VKkZ7LZgfTRCJ-13" style="edgeStyle=orthogonalEdgeStyle;rounded=0;orthogonalLoop=1;jettySize=auto;html=1;entryX=0.5;entryY=1;entryDx=0;entryDy=0;endArrow=none;endFill=0;" edge="1" parent="1" source="eNahWZ3VKkZ7LZgfTRCJ-7" target="eNahWZ3VKkZ7LZgfTRCJ-3">
          <mxGeometry relative="1" as="geometry" />
        </mxCell>
        <mxCell id="eNahWZ3VKkZ7LZgfTRCJ-7" value="Triangle" style="rounded=0;whiteSpace=wrap;html=1;" vertex="1" parent="1">
          <mxGeometry x="360" y="490" width="120" height="60" as="geometry" />
        </mxCell>
      </root>
    </mxGraphModel>
  </diagram>
</mxfile>
